# 3ds Max Wavefront OBJ Exporter v0.97b - (c)2007 guruware
# File Created: 18.06.2019 12:38:12

#
# object Cylinder001
#

v  -9.2388 3.8268 0.0000
v  -10.0000 0.0000 0.0000
v  -10.0000 0.0000 10.0000
v  -9.2388 3.8268 10.0000
v  -18.4455 7.6404 0.0000
v  -19.9653 0.0000 0.0000
v  -19.9653 0.0000 10.0000
v  -18.4455 7.6404 10.0000
# 8 vertices

vn -0.9808 0.1951 0.0000
vn 0.0000 0.0000 1.0000
vn 0.0000 0.0000 -1.0000
vn 0.9808 -0.1951 0.0000
vn 0.0000 1.0000 -0.0000
vn -0.3827 -0.9239 0.0000
# 6 vertex normals

vt 0.1875 0.0000 1.0000
vt 0.2500 0.0000 1.0000
vt 0.2500 1.0000 1.0000
vt 0.1875 1.0000 1.0000
# 4 texture coords

g Cylinder001
s 8
f 1/1/1 2/2/1 3/3/1 4/4/1 
s off
f 2/2/2 1/1/2 5/1/2 6/2/2 
f 4/4/3 3/3/3 7/3/3 8/4/3 
s 1
f 6/2/4 5/1/4 8/4/4 7/3/4 
s off
f 6/2/5 7/3/5 3/3/5 2/2/5 
f 8/4/6 5/1/6 1/1/6 4/4/6 
# 6 polygons

