# 3ds Max Wavefront OBJ Exporter v0.97b - (c)2007 guruware
# File Created: 18.06.2019 12:46:02

#
# object Cylinder001
#

v  10.0000 0.0000 0.0000
v  9.2388 3.8268 0.0000
v  9.2388 3.8268 10.0000
v  10.0000 0.0000 10.0000
v  7.0711 7.0711 0.0000
v  7.0711 7.0711 10.0000
v  3.8268 9.2388 0.0000
v  3.8268 9.2388 10.0000
v  -0.0000 10.0000 0.0000
v  -0.0000 10.0000 10.0000
v  -3.8268 9.2388 0.0000
v  -3.8268 9.2388 10.0000
v  -7.0711 7.0711 0.0000
v  -7.0711 7.0711 10.0000
v  -9.2388 3.8268 0.0000
v  -9.2388 3.8268 10.0000
v  -10.0000 0.0000 0.0000
v  -10.0000 0.0000 10.0000
v  -9.2388 -3.8268 0.0000
v  -9.2388 -3.8268 10.0000
v  -7.0711 -7.0711 0.0000
v  -7.0711 -7.0711 10.0000
v  -3.8268 -9.2388 0.0000
v  -3.8268 -9.2388 10.0000
v  0.0000 -10.0000 0.0000
v  0.0000 -10.0000 10.0000
v  3.8268 -9.2388 0.0000
v  3.8268 -9.2388 10.0000
v  7.0711 -7.0711 0.0000
v  7.0711 -7.0711 10.0000
v  9.2388 -3.8268 0.0000
v  9.2388 -3.8268 10.0000
v  6.6667 0.0000 0.0000
v  6.1592 2.5512 0.0000
v  4.7140 4.7140 0.0000
v  2.5512 6.1592 0.0000
v  -0.0000 6.6667 0.0000
v  -2.5512 6.1592 0.0000
v  -4.7140 4.7140 0.0000
v  -6.1592 2.5512 0.0000
v  -6.6667 0.0000 0.0000
v  -6.1592 -2.5512 0.0000
v  -4.7140 -4.7140 0.0000
v  -2.5512 -6.1592 0.0000
v  0.0000 -6.6667 0.0000
v  2.5512 -6.1592 0.0000
v  4.7140 -4.7140 0.0000
v  6.1592 -2.5512 0.0000
v  3.3333 0.0000 0.0000
v  3.0796 1.2756 0.0000
v  2.3570 2.3570 0.0000
v  1.2756 3.0796 0.0000
v  -0.0000 3.3333 0.0000
v  -1.2756 3.0796 0.0000
v  -2.3570 2.3570 0.0000
v  -3.0796 1.2756 0.0000
v  -3.3333 0.0000 0.0000
v  -3.0796 -1.2756 0.0000
v  -2.3570 -2.3570 0.0000
v  -1.2756 -3.0796 0.0000
v  0.0000 -3.3333 0.0000
v  1.2756 -3.0796 0.0000
v  2.3570 -2.3570 0.0000
v  3.0796 -1.2756 0.0000
v  0.0000 0.0000 0.0000
v  6.1592 2.5512 10.0000
v  6.6667 0.0000 10.0000
v  4.7140 4.7140 10.0000
v  2.5512 6.1592 10.0000
v  -0.0000 6.6667 10.0000
v  -2.5512 6.1592 10.0000
v  -4.7140 4.7140 10.0000
v  -6.1592 2.5512 10.0000
v  -6.6667 0.0000 10.0000
v  -6.1592 -2.5512 10.0000
v  -4.7140 -4.7140 10.0000
v  -2.5512 -6.1592 10.0000
v  0.0000 -6.6667 10.0000
v  2.5512 -6.1592 10.0000
v  4.7140 -4.7140 10.0000
v  6.1592 -2.5512 10.0000
v  3.0796 1.2756 10.0000
v  3.3333 0.0000 10.0000
v  2.3570 2.3570 10.0000
v  1.2756 3.0796 10.0000
v  -0.0000 3.3333 10.0000
v  -1.2756 3.0796 10.0000
v  -2.3570 2.3570 10.0000
v  -3.0796 1.2756 10.0000
v  -3.3333 0.0000 10.0000
v  -3.0796 -1.2756 10.0000
v  -2.3570 -2.3570 10.0000
v  -1.2756 -3.0796 10.0000
v  0.0000 -3.3333 10.0000
v  1.2756 -3.0796 10.0000
v  2.3570 -2.3570 10.0000
v  3.0796 -1.2756 10.0000
v  0.0000 0.0000 10.0000
# 98 vertices

vn 0.9808 0.1951 0.0000
vn 0.8315 0.5556 0.0000
vn 0.5556 0.8315 0.0000
vn 0.1951 0.9808 0.0000
vn -0.1951 0.9808 0.0000
vn -0.5556 0.8315 0.0000
vn -0.8315 0.5556 0.0000
vn -0.9808 0.1951 0.0000
vn -0.9808 -0.1951 0.0000
vn -0.8315 -0.5556 0.0000
vn -0.5556 -0.8315 0.0000
vn -0.1951 -0.9808 0.0000
vn 0.1951 -0.9808 0.0000
vn 0.5556 -0.8315 0.0000
vn 0.8315 -0.5556 0.0000
vn 0.9808 -0.1951 0.0000
vn 0.0000 0.0000 -1.0000
vn 0.0000 0.0000 1.0000
# 18 vertex normals

vt 0.6968 0.1950 0.1811
vt 0.6215 0.1950 0.1811
vt 0.6215 0.0020 0.1811
vt 0.6968 0.0020 0.1811
vt 0.5461 0.1950 0.1811
vt 0.5461 0.0020 0.1811
vt 0.4708 0.1950 0.1811
vt 0.4708 0.0020 0.1811
vt 0.3955 0.1950 -0.1811
vt 0.3955 0.0020 0.1811
vt 0.9980 0.5885 0.1811
vt 0.9227 0.5885 0.1811
vt 0.9227 0.3955 0.1811
vt 0.9980 0.3955 -0.1811
vt 0.8474 0.5885 0.1811
vt 0.8474 0.3955 0.1811
vt 0.7721 0.5885 0.1811
vt 0.7721 0.3955 0.1811
vt 0.6968 0.5885 0.1811
vt 0.6968 0.3955 0.1811
vt 0.6215 0.5885 0.1811
vt 0.6215 0.3955 0.1811
vt 0.5461 0.5885 0.1811
vt 0.5461 0.3955 0.1811
vt 0.4708 0.5885 0.1811
vt 0.4708 0.3955 0.1811
vt 0.3955 0.5885 -0.1811
vt 0.3955 0.3955 0.1811
vt 0.9980 0.1950 0.1811
vt 0.9227 0.1950 0.1811
vt 0.9227 0.0020 0.1811
vt 0.9980 0.0020 -0.1811
vt 0.8474 0.1950 0.1811
vt 0.8474 0.0020 0.1811
vt 0.7721 0.1950 0.1811
vt 0.7721 0.0020 0.1811
vt 0.3733 0.1211 0.0000
vt 0.3880 0.1950 0.0000
vt 0.3237 0.1950 0.0000
vt 0.3139 0.1458 0.0000
vt 0.3315 0.0585 0.0000
vt 0.2860 0.1040 0.0000
vt 0.2689 0.0167 0.0000
vt 0.2442 0.0761 0.0000
vt 0.1950 0.0020 0.0000
vt 0.1950 0.0663 0.0000
vt 0.1211 0.0167 0.0000
vt 0.1458 0.0761 0.0000
vt 0.0585 0.0585 0.0000
vt 0.1040 0.1040 0.0000
vt 0.0167 0.1212 0.0000
vt 0.0761 0.1458 0.0000
vt 0.0020 0.1950 0.0000
vt 0.0663 0.1950 0.0000
vt 0.0167 0.2689 0.0000
vt 0.0761 0.2443 0.0000
vt 0.0585 0.3315 0.0000
vt 0.1040 0.2860 0.0000
vt 0.1211 0.3733 0.0000
vt 0.1458 0.3139 0.0000
vt 0.1950 0.3880 0.0000
vt 0.1950 0.3237 0.0000
vt 0.2689 0.3733 0.0000
vt 0.2443 0.3139 0.0000
vt 0.3315 0.3315 0.0000
vt 0.2860 0.2860 0.0000
vt 0.3733 0.2689 0.0000
vt 0.3139 0.2443 0.0000
vt 0.2593 0.1950 0.0000
vt 0.2544 0.1704 0.0000
vt 0.2405 0.1495 0.0000
vt 0.2196 0.1356 0.0000
vt 0.1950 0.1307 0.0000
vt 0.1704 0.1356 0.0000
vt 0.1495 0.1495 0.0000
vt 0.1356 0.1704 0.0000
vt 0.1307 0.1950 0.0000
vt 0.1356 0.2196 0.0000
vt 0.1495 0.2405 0.0000
vt 0.1704 0.2544 0.0000
vt 0.1950 0.2593 0.0000
vt 0.2196 0.2544 0.0000
vt 0.2405 0.2405 0.0000
vt 0.2544 0.2196 0.0000
vt 0.1258 0.8288 -0.1160
vt 0.1307 0.8534 0.1160
vt 0.0663 0.8534 -0.1160
vt 0.1118 0.8079 -0.1160
vt 0.0663 0.7891 -0.1160
vt 0.0910 0.7940 -0.1160
vt 0.0417 0.7940 -0.1160
vt 0.0208 0.8079 -0.1160
vt 0.0020 0.8534 0.1160
vt 0.0069 0.8288 -0.1160
vt 0.0069 0.8780 -0.1160
vt 0.0208 0.8989 -0.1160
vt 0.0663 0.9177 -0.1160
vt 0.0417 0.9128 -0.1160
vt 0.0910 0.9128 -0.1160
vt 0.1118 0.8989 -0.1160
vt 0.1258 0.8780 -0.1160
vt 0.3880 0.5885 0.0000
vt 0.3733 0.6624 0.0000
vt 0.3139 0.6378 0.0000
vt 0.3237 0.5885 0.0000
vt 0.3315 0.7250 0.0000
vt 0.2860 0.6795 0.0000
vt 0.2689 0.7669 0.0000
vt 0.2442 0.7074 0.0000
vt 0.1950 0.7815 0.0000
vt 0.1950 0.7172 0.0000
vt 0.1211 0.7669 0.0000
vt 0.1458 0.7074 0.0000
vt 0.0585 0.7250 0.0000
vt 0.1040 0.6795 0.0000
vt 0.0167 0.6624 0.0000
vt 0.0761 0.6378 0.0000
vt 0.0020 0.5885 0.0000
vt 0.0663 0.5885 0.0000
vt 0.0167 0.5147 0.0000
vt 0.0761 0.5393 0.0000
vt 0.0585 0.4521 0.0000
vt 0.1040 0.4976 0.0000
vt 0.1211 0.4102 0.0000
vt 0.1458 0.4697 0.0000
vt 0.1950 0.3955 0.0000
vt 0.1950 0.4599 0.0000
vt 0.2689 0.4102 0.0000
vt 0.2442 0.4697 0.0000
vt 0.3315 0.4521 0.0000
vt 0.2860 0.4976 0.0000
vt 0.3733 0.5147 0.0000
vt 0.3139 0.5393 0.0000
vt 0.2544 0.6132 0.0000
vt 0.2593 0.5885 0.0000
vt 0.2405 0.6340 0.0000
vt 0.2196 0.6480 0.0000
vt 0.1950 0.6529 0.0000
vt 0.1704 0.6480 0.0000
vt 0.1495 0.6340 0.0000
vt 0.1356 0.6132 0.0000
vt 0.1307 0.5885 0.0000
vt 0.1356 0.5639 0.0000
vt 0.1495 0.5430 0.0000
vt 0.1704 0.5291 0.0000
vt 0.1950 0.5242 0.0000
vt 0.2196 0.5291 0.0000
vt 0.2405 0.5430 0.0000
vt 0.2544 0.5639 0.0000
vt 0.4845 0.3263 -0.3481
vt 0.4599 0.3312 -0.3481
vt 0.4599 0.2669 -0.3481
vt 0.5054 0.3124 -0.3481
vt 0.5193 0.2915 -0.3481
vt 0.5242 0.2669 0.3481
vt 0.4004 0.2915 -0.3481
vt 0.3955 0.2669 0.3481
vt 0.4144 0.3124 -0.3481
vt 0.4352 0.3263 -0.3481
vt 0.4352 0.2074 -0.3481
vt 0.4599 0.2025 -0.3481
vt 0.4144 0.2214 -0.3481
vt 0.4004 0.2422 -0.3481
vt 0.5193 0.2422 -0.3481
vt 0.5054 0.2214 -0.3481
vt 0.4845 0.2074 -0.3481
# 166 texture coords

g Cylinder001
s off
f 1/1/1 2/2/1 3/3/1 4/4/1 
f 2/2/2 5/5/2 6/6/2 3/3/2 
f 5/5/3 7/7/3 8/8/3 6/6/3 
f 7/7/4 9/9/4 10/10/4 8/8/4 
f 9/11/5 11/12/5 12/13/5 10/14/5 
f 11/12/6 13/15/6 14/16/6 12/13/6 
f 13/15/7 15/17/7 16/18/7 14/16/7 
f 15/17/8 17/19/8 18/20/8 16/18/8 
f 17/19/9 19/21/9 20/22/9 18/20/9 
f 19/21/10 21/23/10 22/24/10 20/22/10 
f 21/23/11 23/25/11 24/26/11 22/24/11 
f 23/25/12 25/27/12 26/28/12 24/26/12 
f 25/29/13 27/30/13 28/31/13 26/32/13 
f 27/30/14 29/33/14 30/34/14 28/31/14 
f 29/33/15 31/35/15 32/36/15 30/34/15 
f 31/35/16 1/1/16 4/4/16 32/36/16 
f 2/37/17 1/38/17 33/39/17 34/40/17 
f 5/41/17 2/37/17 34/40/17 35/42/17 
f 7/43/17 5/41/17 35/42/17 36/44/17 
f 9/45/17 7/43/17 36/44/17 37/46/17 
f 11/47/17 9/45/17 37/46/17 38/48/17 
f 13/49/17 11/47/17 38/48/17 39/50/17 
f 15/51/17 13/49/17 39/50/17 40/52/17 
f 17/53/17 15/51/17 40/52/17 41/54/17 
f 19/55/17 17/53/17 41/54/17 42/56/17 
f 21/57/17 19/55/17 42/56/17 43/58/17 
f 23/59/17 21/57/17 43/58/17 44/60/17 
f 25/61/17 23/59/17 44/60/17 45/62/17 
f 27/63/17 25/61/17 45/62/17 46/64/17 
f 29/65/17 27/63/17 46/64/17 47/66/17 
f 31/67/17 29/65/17 47/66/17 48/68/17 
f 1/38/17 31/67/17 48/68/17 33/39/17 
f 34/40/17 33/39/17 49/69/17 50/70/17 
f 35/42/17 34/40/17 50/70/17 51/71/17 
f 36/44/17 35/42/17 51/71/17 52/72/17 
f 37/46/17 36/44/17 52/72/17 53/73/17 
f 38/48/17 37/46/17 53/73/17 54/74/17 
f 39/50/17 38/48/17 54/74/17 55/75/17 
f 40/52/17 39/50/17 55/75/17 56/76/17 
f 41/54/17 40/52/17 56/76/17 57/77/17 
f 42/56/17 41/54/17 57/77/17 58/78/17 
f 43/58/17 42/56/17 58/78/17 59/79/17 
f 44/60/17 43/58/17 59/79/17 60/80/17 
f 45/62/17 44/60/17 60/80/17 61/81/17 
f 46/64/17 45/62/17 61/81/17 62/82/17 
f 47/66/17 46/64/17 62/82/17 63/83/17 
f 48/68/17 47/66/17 63/83/17 64/84/17 
f 33/39/17 48/68/17 64/84/17 49/69/17 
f 50/85/17 49/86/17 65/87/17 51/88/17 
f 65/87/17 53/89/17 52/90/17 51/88/17 
f 54/91/17 53/89/17 65/87/17 55/92/17 
f 65/87/17 57/93/17 56/94/17 55/92/17 
f 58/95/17 57/93/17 65/87/17 59/96/17 
f 65/87/17 61/97/17 60/98/17 59/96/17 
f 62/99/17 61/97/17 65/87/17 63/100/17 
f 65/87/17 49/86/17 64/101/17 63/100/17 
f 4/102/18 3/103/18 66/104/18 67/105/18 
f 3/103/18 6/106/18 68/107/18 66/104/18 
f 6/106/18 8/108/18 69/109/18 68/107/18 
f 8/108/18 10/110/18 70/111/18 69/109/18 
f 10/110/18 12/112/18 71/113/18 70/111/18 
f 12/112/18 14/114/18 72/115/18 71/113/18 
f 14/114/18 16/116/18 73/117/18 72/115/18 
f 16/116/18 18/118/18 74/119/18 73/117/18 
f 18/118/18 20/120/18 75/121/18 74/119/18 
f 20/120/18 22/122/18 76/123/18 75/121/18 
f 22/122/18 24/124/18 77/125/18 76/123/18 
f 24/124/18 26/126/18 78/127/18 77/125/18 
f 26/126/18 28/128/18 79/129/18 78/127/18 
f 28/128/18 30/130/18 80/131/18 79/129/18 
f 30/130/18 32/132/18 81/133/18 80/131/18 
f 32/132/18 4/102/18 67/105/18 81/133/18 
f 67/105/18 66/104/18 82/134/18 83/135/18 
f 66/104/18 68/107/18 84/136/18 82/134/18 
f 68/107/18 69/109/18 85/137/18 84/136/18 
f 69/109/18 70/111/18 86/138/18 85/137/18 
f 70/111/18 71/113/18 87/139/18 86/138/18 
f 71/113/18 72/115/18 88/140/18 87/139/18 
f 72/115/18 73/117/18 89/141/18 88/140/18 
f 73/117/18 74/119/18 90/142/18 89/141/18 
f 74/119/18 75/121/18 91/143/18 90/142/18 
f 75/121/18 76/123/18 92/144/18 91/143/18 
f 76/123/18 77/125/18 93/145/18 92/144/18 
f 77/125/18 78/127/18 94/146/18 93/145/18 
f 78/127/18 79/129/18 95/147/18 94/146/18 
f 79/129/18 80/131/18 96/148/18 95/147/18 
f 80/131/18 81/133/18 97/149/18 96/148/18 
f 81/133/18 67/105/18 83/135/18 97/149/18 
f 85/150/18 86/151/18 98/152/18 84/153/18 
f 82/154/18 84/153/18 98/152/18 83/155/18 
f 89/156/18 90/157/18 98/152/18 88/158/18 
f 87/159/18 88/158/18 98/152/18 86/151/18 
f 93/160/18 94/161/18 98/152/18 92/162/18 
f 91/163/18 92/162/18 98/152/18 90/157/18 
f 97/164/18 83/155/18 98/152/18 96/165/18 
f 95/166/18 96/165/18 98/152/18 94/161/18 
# 96 polygons

